<mxfile host="app.diagrams.net" agent="Mozilla/5.0 (Windows NT 10.0; Win64; x64) AppleWebKit/537.36 (KHTML, like Gecko) Chrome/131.0.0.0 Safari/537.36 Edg/131.0.0.0" version="25.0.3">
  <diagram name="Page-1" id="c2Be-DUU_uUGDb-m0DUB">
    <mxGraphModel dx="786" dy="511" grid="1" gridSize="10" guides="1" tooltips="1" connect="1" arrows="1" fold="1" page="1" pageScale="1" pageWidth="850" pageHeight="1100" math="0" shadow="0">
      <root>
        <mxCell id="0" />
        <mxCell id="1" parent="0" />
        <mxCell id="1GA_BE7uCBG8FZZ6d8qf-3" value="" style="edgeStyle=orthogonalEdgeStyle;rounded=0;orthogonalLoop=1;jettySize=auto;html=1;" edge="1" parent="1" source="1GA_BE7uCBG8FZZ6d8qf-1" target="1GA_BE7uCBG8FZZ6d8qf-2">
          <mxGeometry relative="1" as="geometry" />
        </mxCell>
        <mxCell id="1GA_BE7uCBG8FZZ6d8qf-1" value="Inicio" style="ellipse;whiteSpace=wrap;html=1;aspect=fixed;" vertex="1" parent="1">
          <mxGeometry x="280" width="120" height="120" as="geometry" />
        </mxCell>
        <mxCell id="1GA_BE7uCBG8FZZ6d8qf-5" value="" style="edgeStyle=orthogonalEdgeStyle;rounded=0;orthogonalLoop=1;jettySize=auto;html=1;" edge="1" parent="1" source="1GA_BE7uCBG8FZZ6d8qf-2" target="1GA_BE7uCBG8FZZ6d8qf-4">
          <mxGeometry relative="1" as="geometry" />
        </mxCell>
        <mxCell id="1GA_BE7uCBG8FZZ6d8qf-2" value="&lt;div&gt;&amp;nbsp; &amp;nbsp; Definir tipo_cambio_eur_a_mxn = 23.7&lt;/div&gt;&lt;div&gt;&amp;nbsp; &amp;nbsp; Definir tipo_cambio_usd_a_mxn = 20.7&lt;/div&gt;" style="whiteSpace=wrap;html=1;" vertex="1" parent="1">
          <mxGeometry x="200" y="200" width="280" height="120" as="geometry" />
        </mxCell>
        <mxCell id="1GA_BE7uCBG8FZZ6d8qf-9" value="" style="edgeStyle=orthogonalEdgeStyle;rounded=0;orthogonalLoop=1;jettySize=auto;html=1;" edge="1" parent="1" source="1GA_BE7uCBG8FZZ6d8qf-4" target="1GA_BE7uCBG8FZZ6d8qf-8">
          <mxGeometry relative="1" as="geometry" />
        </mxCell>
        <mxCell id="1GA_BE7uCBG8FZZ6d8qf-4" value="&amp;nbsp;Mostrar mensaje: &quot;Ingrese la monda origen para la conversion (EUR/USD): &quot;" style="shape=parallelogram;perimeter=parallelogramPerimeter;whiteSpace=wrap;html=1;fixedSize=1;" vertex="1" parent="1">
          <mxGeometry x="190" y="400" width="300" height="120" as="geometry" />
        </mxCell>
        <mxCell id="1GA_BE7uCBG8FZZ6d8qf-11" value="" style="edgeStyle=orthogonalEdgeStyle;rounded=0;orthogonalLoop=1;jettySize=auto;html=1;" edge="1" parent="1" source="1GA_BE7uCBG8FZZ6d8qf-8" target="1GA_BE7uCBG8FZZ6d8qf-10">
          <mxGeometry relative="1" as="geometry" />
        </mxCell>
        <mxCell id="1GA_BE7uCBG8FZZ6d8qf-8" value="Mostrar mensaje: &quot;ingrese el monto a comvertir: &quot;" style="shape=parallelogram;perimeter=parallelogramPerimeter;whiteSpace=wrap;html=1;fixedSize=1;" vertex="1" parent="1">
          <mxGeometry x="190" y="600" width="300" height="120" as="geometry" />
        </mxCell>
        <mxCell id="1GA_BE7uCBG8FZZ6d8qf-13" value="" style="edgeStyle=orthogonalEdgeStyle;rounded=0;orthogonalLoop=1;jettySize=auto;html=1;" edge="1" parent="1" source="1GA_BE7uCBG8FZZ6d8qf-10" target="1GA_BE7uCBG8FZZ6d8qf-12">
          <mxGeometry relative="1" as="geometry" />
        </mxCell>
        <mxCell id="1GA_BE7uCBG8FZZ6d8qf-22" value="" style="edgeStyle=orthogonalEdgeStyle;rounded=0;orthogonalLoop=1;jettySize=auto;html=1;" edge="1" parent="1" source="1GA_BE7uCBG8FZZ6d8qf-10" target="1GA_BE7uCBG8FZZ6d8qf-17">
          <mxGeometry relative="1" as="geometry" />
        </mxCell>
        <mxCell id="1GA_BE7uCBG8FZZ6d8qf-10" value="tipo_conversion es EUR&amp;nbsp;" style="rhombus;whiteSpace=wrap;html=1;" vertex="1" parent="1">
          <mxGeometry x="250" y="780" width="180" height="160" as="geometry" />
        </mxCell>
        <mxCell id="1GA_BE7uCBG8FZZ6d8qf-15" value="" style="edgeStyle=orthogonalEdgeStyle;rounded=0;orthogonalLoop=1;jettySize=auto;html=1;" edge="1" parent="1" source="1GA_BE7uCBG8FZZ6d8qf-12" target="1GA_BE7uCBG8FZZ6d8qf-14">
          <mxGeometry relative="1" as="geometry" />
        </mxCell>
        <mxCell id="1GA_BE7uCBG8FZZ6d8qf-12" value="Calcular resultado = monto a convertir* tipo cambio EUR a MXN" style="whiteSpace=wrap;html=1;" vertex="1" parent="1">
          <mxGeometry x="470" y="800" width="260" height="120" as="geometry" />
        </mxCell>
        <mxCell id="1GA_BE7uCBG8FZZ6d8qf-14" value="Mostrar &quot;El resultado de la conversion de EUR a MXN es:&quot; resulatdo" style="shape=parallelogram;perimeter=parallelogramPerimeter;whiteSpace=wrap;html=1;fixedSize=1;" vertex="1" parent="1">
          <mxGeometry x="840" y="800" width="200" height="120" as="geometry" />
        </mxCell>
        <mxCell id="1GA_BE7uCBG8FZZ6d8qf-16" value="SI" style="text;html=1;align=center;verticalAlign=middle;resizable=0;points=[];autosize=1;strokeColor=none;fillColor=none;" vertex="1" parent="1">
          <mxGeometry x="430" y="828" width="30" height="30" as="geometry" />
        </mxCell>
        <mxCell id="1GA_BE7uCBG8FZZ6d8qf-21" value="" style="edgeStyle=orthogonalEdgeStyle;rounded=0;orthogonalLoop=1;jettySize=auto;html=1;" edge="1" parent="1" source="1GA_BE7uCBG8FZZ6d8qf-17" target="1GA_BE7uCBG8FZZ6d8qf-18">
          <mxGeometry relative="1" as="geometry" />
        </mxCell>
        <mxCell id="1GA_BE7uCBG8FZZ6d8qf-17" value="tipo_conversion es USD&amp;nbsp;" style="rhombus;whiteSpace=wrap;html=1;" vertex="1" parent="1">
          <mxGeometry x="250" y="980" width="180" height="160" as="geometry" />
        </mxCell>
        <mxCell id="1GA_BE7uCBG8FZZ6d8qf-25" value="" style="edgeStyle=orthogonalEdgeStyle;rounded=0;orthogonalLoop=1;jettySize=auto;html=1;" edge="1" parent="1" source="1GA_BE7uCBG8FZZ6d8qf-18" target="1GA_BE7uCBG8FZZ6d8qf-19">
          <mxGeometry relative="1" as="geometry" />
        </mxCell>
        <mxCell id="1GA_BE7uCBG8FZZ6d8qf-18" value="Calcular resultado = monto a convertir* tipo cambio USD a MXN" style="whiteSpace=wrap;html=1;" vertex="1" parent="1">
          <mxGeometry x="470" y="1000" width="260" height="120" as="geometry" />
        </mxCell>
        <mxCell id="1GA_BE7uCBG8FZZ6d8qf-19" value="Mostrar &quot;El resultado de la conversion de USD a MXN es:&quot; resulatdo" style="shape=parallelogram;perimeter=parallelogramPerimeter;whiteSpace=wrap;html=1;fixedSize=1;" vertex="1" parent="1">
          <mxGeometry x="840" y="1000" width="200" height="120" as="geometry" />
        </mxCell>
        <mxCell id="1GA_BE7uCBG8FZZ6d8qf-23" value="NO" style="text;html=1;align=center;verticalAlign=middle;resizable=0;points=[];autosize=1;strokeColor=none;fillColor=none;" vertex="1" parent="1">
          <mxGeometry x="350" y="948" width="40" height="30" as="geometry" />
        </mxCell>
        <mxCell id="1GA_BE7uCBG8FZZ6d8qf-24" value="SI" style="text;html=1;align=center;verticalAlign=middle;resizable=0;points=[];autosize=1;strokeColor=none;fillColor=none;" vertex="1" parent="1">
          <mxGeometry x="425" y="1018" width="30" height="30" as="geometry" />
        </mxCell>
        <mxCell id="1GA_BE7uCBG8FZZ6d8qf-30" value="" style="edgeStyle=orthogonalEdgeStyle;rounded=0;orthogonalLoop=1;jettySize=auto;html=1;" edge="1" parent="1" source="1GA_BE7uCBG8FZZ6d8qf-17" target="1GA_BE7uCBG8FZZ6d8qf-29">
          <mxGeometry relative="1" as="geometry">
            <mxPoint x="340" y="1140" as="sourcePoint" />
            <mxPoint x="340" y="1260" as="targetPoint" />
          </mxGeometry>
        </mxCell>
        <mxCell id="1GA_BE7uCBG8FZZ6d8qf-33" value="" style="edgeStyle=orthogonalEdgeStyle;rounded=0;orthogonalLoop=1;jettySize=auto;html=1;" edge="1" parent="1" source="1GA_BE7uCBG8FZZ6d8qf-29" target="1GA_BE7uCBG8FZZ6d8qf-32">
          <mxGeometry relative="1" as="geometry" />
        </mxCell>
        <mxCell id="1GA_BE7uCBG8FZZ6d8qf-29" value="Mostrar: &quot;No esta disponible este tipo de conversion actualmente&quot;" style="shape=parallelogram;perimeter=parallelogramPerimeter;whiteSpace=wrap;html=1;fixedSize=1;" vertex="1" parent="1">
          <mxGeometry x="180" y="1200" width="320" height="100" as="geometry" />
        </mxCell>
        <mxCell id="1GA_BE7uCBG8FZZ6d8qf-31" value="NO" style="text;html=1;align=center;verticalAlign=middle;resizable=0;points=[];autosize=1;strokeColor=none;fillColor=none;" vertex="1" parent="1">
          <mxGeometry x="340" y="1158" width="40" height="30" as="geometry" />
        </mxCell>
        <mxCell id="1GA_BE7uCBG8FZZ6d8qf-32" value="Fin" style="ellipse;whiteSpace=wrap;html=1;" vertex="1" parent="1">
          <mxGeometry x="270" y="1370" width="140" height="120" as="geometry" />
        </mxCell>
        <mxCell id="1GA_BE7uCBG8FZZ6d8qf-36" value="" style="endArrow=classic;html=1;rounded=0;" edge="1" parent="1">
          <mxGeometry width="50" height="50" relative="1" as="geometry">
            <mxPoint x="1040" y="858" as="sourcePoint" />
            <mxPoint x="420" y="1434" as="targetPoint" />
            <Array as="points">
              <mxPoint x="1180" y="858" />
              <mxPoint x="1160" y="1430" />
            </Array>
          </mxGeometry>
        </mxCell>
        <mxCell id="1GA_BE7uCBG8FZZ6d8qf-39" value="" style="endArrow=none;html=1;rounded=0;" edge="1" parent="1">
          <mxGeometry width="50" height="50" relative="1" as="geometry">
            <mxPoint x="940" y="1430" as="sourcePoint" />
            <mxPoint x="940" y="1120" as="targetPoint" />
          </mxGeometry>
        </mxCell>
      </root>
    </mxGraphModel>
  </diagram>
</mxfile>
